:FULLY-SPECIFIED
:FORCE-ALL-JOINTS-BE-3DOF
:DEGREES
917
root 2.98385 16.0937 32.0331 1.29708 15.156 2.06161
lfemur -16.2148 19.9544 -9.8471
ltibia 37.1195 -0 0
lfoot -19.3821 -4.28517 0.341444
ltoes -0.888754 0 0
rfemur -28.0281 -12.5491 -3.07753
rtibia 70.5368 -0 0
rfoot -1.3871 -15.636 -1.05777
rtoes 16.5716 -0 0
lowerback 2.17992 -1.76991 -2.42867
upperback -0.0601949 -2.42012 -3.47359
thorax -1.27156 -1.22998 -2.12168
lowerneck -7.01772 -4.73779 -0.311935
upperneck 3.74439 -6.55445 4.58597
head 2.6599 -3.12779 1.2083
lclavicle 5.96693e-15 2.07122e-14 1.85091e-30
lhumerus -53.4283 -39.5478 110.477
lradius 59.4861 -0 0
lwrist 16.3327 0 0
lhand 32.9556 18.904 0.142585
lfingers 7.12502 -0 0
lthumb 56.2692 35.5175 -0.0161491
rclavicle 5.96693e-15 2.07122e-14 1.85091e-30
rhumerus -25.3904 8.39929 -66.4111
rradius 91.1349 -0 0
rwrist -10.3339 0 0
rhand -0.452019 -16.9776 4.19082
rfingers 7.12502 -0 0
rthumb 25.08 -43.7215 4.38097
918
root 2.90428 16.0594 32.0668 1.57995 14.3375 2.24114
lfemur -15.0988 19.1887 -9.07804
ltibia 35.5811 -0 0
lfoot -19.8567 -4.75297 0.366181
ltoes -2.26061 0 0
rfemur -28.16 -12.6158 -3.316
rtibia 69.5087 -0 0
rfoot -2.20228 -14.7916 -1.13475
rtoes 13.8338 -0 0
lowerback 1.96136 -1.71237 -2.30439
upperback -0.127982 -2.33256 -3.63408
thorax -1.22439 -1.19016 -2.36571
lowerneck -7.01573 -4.50706 -0.126566
upperneck 3.64765 -6.25506 4.53392
head 2.61428 -2.98024 1.17305
lclavicle 5.09685e-15 2.2095e-14 1.98472e-30
lhumerus -53.6801 -39.7551 110.558
lradius 59.3071 -0 0
lwrist 16.7498 0 0
lhand 33.3119 19.1642 0.152903
lfingers 7.12502 -0 0
lthumb 56.5775 35.4834 -0.0173172
rclavicle 5.09685e-15 2.2095e-14 1.98472e-30
rhumerus -23.1645 7.27886 -63.2159
rradius 88.3261 -0 0
rwrist -10.5099 0 0
rhand -2.23339 -18.5154 4.50216
rfingers 7.12502 -0 0
rthumb 23.3647 -45.3915 4.70675
919
root 2.82242 16.0241 32.1016 1.86712 13.4948 2.42082
lfemur -13.9675 18.3865 -8.30719
ltibia 33.9987 -0 0
lfoot -20.3451 -5.23437 0.387582
ltoes -3.67174 0 0
rfemur -28.2953 -12.685 -3.5612
rtibia 68.451 -0 0
rfoot -3.04191 -13.922 -1.20139
rtoes 11.0175 -0 0
lowerback 1.73668 -1.65269 -2.17678
upperback -0.197963 -2.2427 -3.79926
thorax -1.17604 -1.149 -2.6167
lowerneck -7.01291 -4.26972 0.0640607
upperneck 3.5479 -5.94718 4.47988
head 2.56726 -2.8285 1.13668
lclavicle 4.20186e-15 2.35174e-14 2.10046e-30
lhumerus -53.9404 -39.9681 110.643
lradius 59.123 -0 0
lwrist 17.1788 0 0
lhand 33.6785 19.4319 0.161829
lfingers 7.12502 -0 0
lthumb 56.8946 35.4484 -0.0183276
rclavicle 4.20186e-15 2.35174e-14 2.10046e-30
rhumerus -20.9496 6.00103 -59.9854
rradius 85.4368 -0 0
rwrist -10.691 0 0
rhand -4.07459 -20.1072 4.77239
rfingers 7.12502 -0 0
rthumb 21.5903 -47.1194 4.98956
920
root 2.7387 15.988 32.1372 2.15703 12.6319 2.59947
lfemur -12.8276 17.5515 -7.53976
ltibia 32.3803 -0 0
lfoot -20.8448 -5.7269 0.405224
ltoes -5.11501 0 0
rfemur -28.4335 -12.7564 -3.81189
rtibia 67.3693 -0 0
rfoot -3.90163 -13.0316 -1.25635
rtoes 8.13718 -0 0
lowerback 1.50703 -1.59114 -2.04651
upperback -0.269801 -2.151 -3.96831
thorax -1.12678 -1.10667 -2.87336
lowerneck -7.0092 -4.02699 0.258985
upperneck 3.44563 -5.63239 4.42407
head 2.51908 -2.67333 1.09935
lclavicle 3.28649e-15 2.49723e-14 2.19584e-30
lhumerus -54.2078 -40.1857 110.731
lradius 58.9347 -0 0
lwrist 17.6177 0 0
lhand 34.0534 19.7057 0.169186
lfingers 7.12502 -0 0
lthumb 57.2189 35.4125 -0.0191604
rclavicle 3.28649e-15 2.49723e-14 2.19584e-30
rhumerus -18.7676 4.56912 -56.7422
rradius 82.4817 -0 0
rwrist -10.8762 0 0
rhand -5.96546 -21.7441 4.99579
rfingers 7.12502 -0 0
rthumb 19.7667 -48.8957 5.22338
921
root 2.65353 15.9513 32.1733 2.44816 11.7533 2.77605
lfemur -11.6854 16.6874 -6.78054
ltibia 30.7338 -0 0
lfoot -21.3533 -6.2281 0.418764
ltoes -6.58328 0 0
rfemur -28.5738 -12.8296 -4.0668
rtibia 66.2688 -0 0
rfoot -4.77703 -12.1251 -1.29855
rtoes 5.20693 -0 0
lowerback 1.27354 -1.52799 -1.91424
upperback -0.343157 -2.05793 -4.14039
thorax -1.07686 -1.06339 -3.13443
lowerneck -7.00458 -3.78008 0.457232
upperneck 3.34133 -5.31224 4.36676
head 2.46997 -2.51551 1.06124
lclavicle 2.35526e-15 2.64523e-14 2.26903e-30
lhumerus -54.4812 -40.4066 110.822
lradius 58.7432 -0 0
lwrist 18.0641 0 0
lhand 34.4349 19.9844 0.174831
lfingers 7.12502 -0 0
lthumb 57.5489 35.3761 -0.0197994
rclavicle 2.35526e-15 2.64523e-14 2.26903e-30
rhumerus -16.6384 2.98984 -53.507
rradius 79.4755 -0 0
rwrist -11.0646 0 0
rhand -7.89544 -23.4164 5.16761
rfingers 7.12502 -0 0
rthumb 17.9044 -50.7101 5.40324
922
root 2.56732 15.9142 32.21 2.73911 10.863 2.94959
lfemur -10.5466 15.7983 -6.03389
ltibia 29.0673 -0 0
lfoot -21.868 -6.7355 0.427937
ltoes -8.06941 0 0
rfemur -28.7155 -12.9043 -4.32472
rtibia 65.155 -0 0
rfoot -5.66364 -11.2069 -1.32714
rtoes 2.24105 -0 0
lowerback 1.03738 -1.46351 -1.78063
upperback -0.417685 -1.96395 -4.31468
thorax -1.02654 -1.01935 -3.39863
lowerneck -6.99903 -3.53016 0.657876
upperneck 3.23548 -4.9883 4.30817
head 2.42015 -2.35579 1.02254
lclavicle 1.4127e-15 2.79503e-14 2.31861e-30
lhumerus -54.7593 -40.6299 110.917
lradius 58.5493 -0 0
lwrist 18.5159 0 0
lhand 34.821 20.2664 0.178655
lfingers 7.12502 -0 0
lthumb 57.8829 35.3392 -0.0202324
rclavicle 1.4127e-15 2.79503e-14 2.31861e-30
rhumerus -14.5799 1.27301 -50.2979
rradius 76.4327 -0 0
rwrist -11.2553 0 0
rhand -9.85363 -25.1144 5.28423
rfingers 7.12502 -0 0
rthumb 16.0141 -52.5519 5.52532
923
root 2.48049 15.8767 32.2468 3.02856 9.96554 3.11924
lfemur -9.41675 14.8887 -5.30372
ltibia 27.3888 -0 0
lfoot -22.3866 -7.24662 0.432569
ltoes -9.56625 0 0
rfemur -28.8579 -12.9802 -4.58439
rtibia 64.0331 -0 0
rfoot -6.55701 -10.2818 -1.34158
rtoes -0.746207 0 0
lowerback 0.799664 -1.39802 -1.64633
upperback -0.493035 -1.86953 -4.49033
thorax -0.97606 -0.974762 -3.6647
lowerneck -6.99256 -3.27846 0.859938
upperneck 3.12859 -4.66214 4.24859
head 2.36987 -2.19496 0.983419
lclavicle 4.63356e-16 2.94591e-14 2.34364e-30
lhumerus -55.0409 -40.8545 111.013
lradius 58.354 -0 0
lwrist 18.971 0 0
lhand 35.2099 20.5505 0.180586
lfingers 7.12502 -0 0
lthumb 58.2193 35.302 -0.0204509
rclavicle 4.63356e-16 2.94591e-14 2.34364e-30
rhumerus -12.6073 -0.568742 -47.1307
rradius 73.3679 -0 0
rwrist -11.4473 0 0
rhand -11.8288 -26.828 5.34316
rfingers 7.12502 -0 0
rthumb 14.1068 -54.4105 5.58701
924
root 2.39345 15.8392 32.2838 3.31523 9.06507 3.28424
lfemur -8.30094 13.9632 -4.5935
ltibia 25.7063 -0 0
lfoot -22.9063 -7.75898 0.432569
ltoes -11.0667 0 0
rfemur -29.0003 -13.0569 -4.84456
rtibia 62.9086 -0 0
rfoot -7.45263 -9.35443 -1.34158
rtoes -3.74059 0 0
lowerback 0.561546 -1.33182 -1.51199
upperback -0.568851 -1.77511 -4.66653
thorax -0.92567 -0.92983 -3.93135
lowerneck -6.98519 -3.02618 1.06246
upperneck 3.02115 -4.3353 4.18828
head 2.31937 -2.03378 0.94407
lclavicle -4.88256e-16 3.09715e-14 2.34364e-30
lhumerus -55.3246 -41.0793 111.112
lradius 58.1583 -0 0
lwrist 19.4271 0 0
lhand 35.5997 20.8353 0.180586
lfingers 7.12502 -0 0
lthumb 58.5566 35.2647 -0.0204509
rclavicle -4.88256e-16 3.09715e-14 2.34364e-30
rhumerus -10.7334 -2.52041 -44.0185
rradius 70.2959 -0 0
rwrist -11.6398 0 0
rhand -13.8098 -28.5467 5.34316
rfingers 7.12502 -0 0
rthumb 12.194 -56.2745 5.58701
925
root 2.30662 15.8018 32.3207 3.59793 8.16595 3.44391
lfemur -7.20393 13.0269 -3.9063
ltibia 24.0278 -0 0
lfoot -23.4249 -8.2701 0.427937
ltoes -12.5635 0 0
rfemur -29.1421 -13.1341 -5.104
rtibia 61.7867 -0 0
rfoot -8.346 -8.42934 -1.32714
rtoes -6.72785 0 0
lowerback 0.324157 -1.26521 -1.37825
upperback -0.644772 -1.68115 -4.84241
thorax -0.875609 -0.884772 -4.19733
lowerneck -6.97694 -2.77454 1.26449
upperneck 2.91367 -4.00936 4.12753
head 2.26889 -1.87302 0.904676
lclavicle -1.4376e-15 3.24803e-14 2.31861e-30
lhumerus -55.6092 -41.3031 111.212
lradius 57.963 -0 0
lwrist 19.8822 0 0
lhand 35.9886 21.1194 0.178655
lfingers 7.12502 -0 0
lthumb 58.893 35.2275 -0.0202324
rclavicle -1.4376e-15 3.24803e-14 2.31861e-30
rhumerus -8.96855 -4.565 -40.9725
rradius 67.2311 -0 0
rwrist -11.8319 0 0
rhand -15.785 -30.2602 5.28423
rfingers 7.12502 -0 0
rthumb 10.2867 -58.1331 5.52532
926
root 2.2204 15.7647 32.3573 3.87551 7.27251 3.59769
lfemur -6.13018 12.0849 -3.24476
ltibia 22.3613 -0 0
lfoot -23.9396 -8.7775 0.418764
ltoes -14.0496 0 0
rfemur -29.2825 -13.2113 -5.36147
rtibia 60.6729 -0 0
rfoot -9.23261 -7.51122 -1.29855
rtoes -9.69373 0 0
lowerback 0.0886284 -1.19854 -1.24574
upperback -0.720432 -1.58809 -5.01716
thorax -0.826114 -0.839808 -4.46136
lowerneck -6.96787 -2.52472 1.46507
upperneck 2.80665 -3.68587 4.06662
head 2.21866 -1.71345 0.865428
lclavicle -2.38016e-15 3.39783e-14 2.26903e-30
lhumerus -55.8932 -41.525 111.314
lradius 57.7691 -0 0
lwrist 20.334 0 0
lhand 36.3747 21.4014 0.174831
lfingers 7.12502 -0 0
lthumb 59.227 35.1906 -0.0197994
rclavicle -2.38016e-15 3.39783e-14 2.26903e-30
rhumerus -7.32069 -6.68393 -38.0016
rradius 64.1883 -0 0
rwrist -12.0226 0 0
rhand -17.7432 -31.9583 5.16761
rfingers 7.12502 -0 0
rthumb 8.39641 -59.9749 5.40324
927
root 2.13522 15.728 32.3935 4.14688 6.38909 3.74505
lfemur -5.08387 11.1426 -2.61115
ltibia 20.7148 -0 0
lfoot -24.4481 -9.2787 0.405224
ltoes -15.5179 0 0
rfemur -29.421 -13.2882 -5.6157
rtibia 59.5724 -0 0
rfoot -10.108 -6.60468 -1.25635
rtoes -12.624 0 0
lowerback -0.143912 -1.13213 -1.1151
upperback -0.795457 -1.49637 -5.18991
thorax -0.777419 -0.79516 -4.72218
lowerneck -6.95806 -2.27796 1.66322
upperneck 2.70062 -3.36638 4.00588
head 2.16892 -1.55582 0.826518
lclavicle -3.31139e-15 3.54583e-14 2.19584e-30
lhumerus -56.1752 -41.7438 111.416
lradius 57.5776 -0 0
lwrist 20.7804 0 0
lhand 36.7562 21.6801 0.169186
lfingers 7.12502 -0 0
lthumb 59.557 35.1542 -0.0191604
rclavicle -3.31139e-15 3.54583e-14 2.19584e-30
rhumerus -5.79557 -8.85748 -35.113
rradius 61.1821 -0 0
rwrist -12.211 0 0
rhand -19.6731 -33.6306 4.99579
rfingers 7.12502 -0 0
rthumb 6.53409 -61.7893 5.22338
928
root 2.05149 15.6919 32.4291 4.41098 5.52004 3.88558
lfemur -4.06892 10.2055 -2.00739
ltibia 19.0963 -0 0
lfoot -24.9478 -9.77124 0.387582
ltoes -16.9612 0 0
rfemur -29.5567 -13.3643 -5.86552
rtibia 58.4907 -0 0
rfoot -10.9677 -5.71432 -1.20139
rtoes -15.5043 0 0
lowerback -0.372339 -1.06634 -0.986947
upperback -0.869471 -1.40644 -5.35984
thorax -0.729752 -0.751057 -4.97852
lowerneck -6.94758 -2.03543 1.85802
upperneck 2.5961 -3.05244 3.94561
head 2.11994 -1.40092 0.788139
lclavicle -4.22676e-15 3.69131e-14 2.10046e-30
lhumerus -56.4538 -41.9585 111.518
lradius 57.3893 -0 0
lwrist 21.2193 0 0
lhand 37.1311 21.9539 0.161829
lfingers 7.12502 -0 0
lthumb 59.8813 35.1183 -0.0183276
rclavicle -4.22676e-15 3.69131e-14 2.10046e-30
rhumerus -4.39693 -11.0651 -32.3128
rradius 58.227 -0 0
rwrist -12.3962 0 0
rhand -21.564 -35.2674 4.77239
rfingers 7.12502 -0 0
rthumb 4.71053 -63.5656 4.98956
